<svg id="Layer_1" enable-background="new 0 0 512 512" height="512" viewBox="0 0 512 512" width="512" xmlns="http://www.w3.org/2000/svg"><g><path d="m350.779 77.317c-25.469-25.112-59.052-38.848-94.779-38.855l-20 326.99 85-20v-.917c0-28.746 11.141-55.932 31.371-76.55 24.91-25.39 38.629-58.962 38.629-94.533 0-36.42-14.284-70.561-40.221-96.135z" fill="#ffbf80"/><g fill="#ffe666"><path d="m256 38.462c-.649 0-1.296-.006-1.946.003-35.32.499-68.588 14.67-93.676 39.902-25.086 25.23-39.069 58.578-39.373 93.901-.307 35.749 13.229 69.556 38.114 95.193 20.559 21.181 31.881 48.555 31.881 77.079v.912l65 20z"/><path d="m0 157.397h76.004v30h-76.004z"/><path d="m28.679 266.537h76.005v30h-76.005z" transform="matrix(.866 -.5 .5 .866 -131.836 71.06)"/><path d="m429.265 245.362h30v76.005h-30z" transform="matrix(.5 -.866 .866 .5 -23.269 526.425)"/><path d="m435.996 159.506h76.004v30h-76.004z"/><path d="m407.317 50.367h76.005v30h-76.005z" transform="matrix(.866 -.5 .5 .866 26.979 231.419)"/><path d="m52.736 25.537h30v76.004h-30z" transform="matrix(.5 -.866 .866 .5 -21.159 90.431)"/></g><path d="m236 395.452 85-20v-30h-65z" fill="#e6e6f2"/><path d="m256 345.452h-65v30l65 20z" fill="#fff5f5"/><path d="m236 425.452 85-20v-30h-65z" fill="#b9bed9"/><path d="m256 375.452h-65v30l65 20z" fill="#e6e6f2"/><path d="m256 480.452c35.841 0 65-29.159 65-65v-10h-65l-20 33.543z" fill="#e6e6f2"/><path d="m191 405.452v10c0 35.841 29.159 65 65 65v-75z" fill="#fff5f5"/></g></svg>